<svg width="334" height="119" viewBox="0 0 334 119" fill="none" xmlns="http://www.w3.org/2000/svg">
<path d="M132.567 63.5853C132.567 92.8998 108.207 116.733 78.0694 116.733C47.9321 116.733 23.5715 92.8998 23.5715 63.5853C23.5715 34.2709 47.9321 10.4372 78.0694 10.4372C108.207 10.4372 132.567 34.2709 132.567 63.5853Z" stroke="black" stroke-width="3.37448"/>
<circle cx="54.9545" cy="66.4516" r="9.27983" fill="black" stroke="black" stroke-width="1.68724"/>
<circle cx="102.872" cy="66.4516" r="9.27983" fill="black" stroke="black" stroke-width="1.68724"/>
<path d="M78.0701 62.2345L66.873 40.1317H38.4735L4 2L75.3333 10.0538C76.5913 10.1958 77.8612 10.1958 79.1192 10.0538L150.453 2L117.72 40.1317H87.8559L78.0701 62.2345Z" stroke="black" stroke-width="2.69959"/>
<path d="M76.4892 79.807C77.0355 78.3446 79.104 78.3446 79.6503 79.807L84.8819 93.8109C85.3763 95.1343 84.1226 96.443 82.7792 96.0058L78.5919 94.6432C78.2526 94.5328 77.8871 94.5328 77.5477 94.6432L73.3603 96.0058C72.0169 96.443 70.7632 95.1343 71.2576 93.8109L76.4892 79.807Z" fill="black"/>
<circle cx="54.9553" cy="67.1262" r="5.06172" fill="#F5F5F5"/>
<circle cx="102.873" cy="67.1262" r="5.06172" fill="#F5F5F5"/>
<path d="M165.312 76.5765C163.829 76.5765 162.382 76.3893 160.971 76.015C159.56 75.6406 158.278 75.0863 157.127 74.352C155.975 73.6033 155.017 72.6747 154.254 71.566C153.505 70.4574 153.038 69.1616 152.85 67.6786H157.666C157.911 68.8017 158.394 69.7447 159.113 70.5078C159.848 71.2709 160.748 71.8468 161.813 72.2355C162.878 72.6243 164.037 72.8186 165.29 72.8186C166.672 72.8186 167.91 72.6315 169.005 72.2571C170.113 71.8684 170.992 71.3213 171.639 70.6158C172.287 69.8959 172.611 69.032 172.611 68.0242C172.611 67.1171 172.388 66.3468 171.942 65.7133C171.51 65.0798 170.891 64.5543 170.085 64.1368C169.293 63.7048 168.335 63.3665 167.212 63.1217L161.295 61.7827C158.977 61.2932 157.148 60.3861 155.809 59.0615C154.485 57.7226 153.815 55.9516 153.801 53.7488C153.786 51.9058 154.269 50.2933 155.248 48.9111C156.241 47.5289 157.594 46.4563 159.308 45.6932C161.021 44.9157 162.972 44.527 165.16 44.527C167.709 44.527 169.847 44.9517 171.575 45.8012C173.317 46.6506 174.634 47.7737 175.527 49.1703C176.42 50.5525 176.873 52.057 176.887 53.684H172.158C172.043 52.3594 171.654 51.3083 170.992 50.5309C170.329 49.7534 169.494 49.1991 168.486 48.8679C167.493 48.5224 166.399 48.3496 165.204 48.3496C164.34 48.3496 163.512 48.4576 162.72 48.6735C161.928 48.8895 161.23 49.2063 160.625 49.6238C160.02 50.0413 159.538 50.5597 159.178 51.1788C158.833 51.7835 158.66 52.4818 158.66 53.2736C158.66 54.3391 159.02 55.2029 159.74 55.8652C160.46 56.5275 161.784 57.0962 163.713 57.5714L169.501 58.8888C171.157 59.2343 172.496 59.7454 173.518 60.4221C174.541 61.0844 175.325 61.8403 175.872 62.6898C176.42 63.5393 176.794 64.4247 176.995 65.3462C177.197 66.2532 177.298 67.1243 177.298 67.9594C177.298 69.5719 176.815 71.0333 175.851 72.3435C174.886 73.6393 173.511 74.6688 171.726 75.4318C169.941 76.1949 167.802 76.5765 165.312 76.5765ZM184.027 76.1445V44.9157H204.198L204.176 48.9327H188.67V58.4136H202.513V62.3658H188.648V72.0628L204.565 72.0844V76.1445H184.027ZM211.876 44.9157C211.991 44.9157 212.33 44.9229 212.891 44.9373C213.467 44.9373 214.158 44.9373 214.964 44.9373C215.771 44.9229 216.591 44.9229 217.426 44.9373C218.276 44.9373 219.032 44.9445 219.694 44.9589C223.51 45.0165 226.612 45.65 229.002 46.8594C231.392 48.0688 233.142 49.811 234.25 52.0858C235.373 54.3463 235.935 57.1034 235.935 60.3573C235.935 63.7408 235.337 66.6132 234.142 68.9744C232.947 71.3213 231.119 73.1066 228.657 74.3304C226.209 75.5398 223.106 76.1445 219.349 76.1445H211.876V44.9157ZM216.584 48.8031V72.2571H219.392C221.753 72.2571 223.805 71.8756 225.547 71.1125C227.303 70.335 228.664 69.0824 229.629 67.3547C230.593 65.6125 231.076 63.2873 231.076 60.3789C231.076 57.5282 230.615 55.2605 229.693 53.576C228.772 51.877 227.447 50.6604 225.72 49.9261C224.006 49.1775 221.94 48.8031 219.521 48.8031H216.584ZM252.749 44.9157H257.436V72.0844H271.862V76.1445H252.728L252.749 44.9157ZM278.089 76.1445V44.9157H298.26L298.238 48.9327H282.732V58.4136H296.575V62.3658H282.71V72.0628L298.627 72.0844V76.1445H278.089ZM331.104 76.1445H325.359L317.303 63.7048L309.356 76.1445H304.281L314.82 60.2278L304.648 44.9157H310.349L317.714 56.3404L325.013 44.9157H330.024L320.154 59.7094L331.104 76.1445Z" fill="black"/>
</svg>
